<mxfile host="app.diagrams.net" agent="Mozilla/5.0 (Windows NT 10.0; Win64; x64) AppleWebKit/537.36 (KHTML, like Gecko) Chrome/138.0.0.0 Safari/537.36 Edg/138.0.0.0" version="28.0.7">
  <diagram name="Page-1" id="8dRpa8fh3zOO52OvsyGu">
    <mxGraphModel dx="2062" dy="723" grid="1" gridSize="10" guides="1" tooltips="1" connect="1" arrows="1" fold="1" page="1" pageScale="1" pageWidth="1100" pageHeight="850" math="0" shadow="0">
      <root>
        <mxCell id="0" />
        <mxCell id="1" parent="0" />
        <mxCell id="j34Nappy7KFsLkG89N9S-2" value="" style="endArrow=none;html=1;rounded=0;" edge="1" parent="1">
          <mxGeometry width="50" height="50" relative="1" as="geometry">
            <mxPoint x="120" y="40" as="sourcePoint" />
            <mxPoint x="800" y="40" as="targetPoint" />
          </mxGeometry>
        </mxCell>
        <mxCell id="j34Nappy7KFsLkG89N9S-3" value="" style="endArrow=none;html=1;rounded=0;" edge="1" parent="1">
          <mxGeometry width="50" height="50" relative="1" as="geometry">
            <mxPoint x="120" y="160" as="sourcePoint" />
            <mxPoint x="800" y="160" as="targetPoint" />
          </mxGeometry>
        </mxCell>
        <mxCell id="j34Nappy7KFsLkG89N9S-4" value="" style="endArrow=none;html=1;rounded=0;" edge="1" parent="1">
          <mxGeometry width="50" height="50" relative="1" as="geometry">
            <mxPoint x="120" y="360" as="sourcePoint" />
            <mxPoint x="800" y="360" as="targetPoint" />
          </mxGeometry>
        </mxCell>
        <mxCell id="j34Nappy7KFsLkG89N9S-5" value="" style="endArrow=none;html=1;rounded=0;" edge="1" parent="1">
          <mxGeometry width="50" height="50" relative="1" as="geometry">
            <mxPoint x="120" y="280" as="sourcePoint" />
            <mxPoint x="800" y="280" as="targetPoint" />
          </mxGeometry>
        </mxCell>
        <mxCell id="j34Nappy7KFsLkG89N9S-7" value="" style="endArrow=none;html=1;rounded=0;" edge="1" parent="1">
          <mxGeometry width="50" height="50" relative="1" as="geometry">
            <mxPoint x="120" y="520" as="sourcePoint" />
            <mxPoint x="610" y="520" as="targetPoint" />
          </mxGeometry>
        </mxCell>
        <mxCell id="j34Nappy7KFsLkG89N9S-10" value="" style="endArrow=none;html=1;rounded=0;" edge="1" parent="1">
          <mxGeometry width="50" height="50" relative="1" as="geometry">
            <mxPoint x="120" y="840" as="sourcePoint" />
            <mxPoint x="120" y="40" as="targetPoint" />
          </mxGeometry>
        </mxCell>
        <mxCell id="j34Nappy7KFsLkG89N9S-11" value="" style="endArrow=none;html=1;rounded=0;" edge="1" parent="1">
          <mxGeometry width="50" height="50" relative="1" as="geometry">
            <mxPoint x="240" y="840" as="sourcePoint" />
            <mxPoint x="240" y="40" as="targetPoint" />
          </mxGeometry>
        </mxCell>
        <mxCell id="j34Nappy7KFsLkG89N9S-12" value="" style="endArrow=none;html=1;rounded=0;" edge="1" parent="1">
          <mxGeometry width="50" height="50" relative="1" as="geometry">
            <mxPoint x="800" y="840" as="sourcePoint" />
            <mxPoint x="800" y="40" as="targetPoint" />
            <Array as="points">
              <mxPoint x="800" y="370" />
            </Array>
          </mxGeometry>
        </mxCell>
        <mxCell id="j34Nappy7KFsLkG89N9S-13" value="" style="endArrow=none;html=1;rounded=0;" edge="1" parent="1">
          <mxGeometry width="50" height="50" relative="1" as="geometry">
            <mxPoint x="120" y="840" as="sourcePoint" />
            <mxPoint x="800" y="840" as="targetPoint" />
          </mxGeometry>
        </mxCell>
        <mxCell id="j34Nappy7KFsLkG89N9S-24" style="edgeStyle=orthogonalEdgeStyle;rounded=0;orthogonalLoop=1;jettySize=auto;html=1;exitX=0.4;exitY=1;exitDx=0;exitDy=0;exitPerimeter=0;" edge="1" parent="1" source="j34Nappy7KFsLkG89N9S-21">
          <mxGeometry relative="1" as="geometry">
            <mxPoint x="800" y="480" as="targetPoint" />
            <mxPoint x="960" y="440" as="sourcePoint" />
            <Array as="points">
              <mxPoint x="960" y="480" />
            </Array>
          </mxGeometry>
        </mxCell>
        <mxCell id="j34Nappy7KFsLkG89N9S-21" value="OpenGL ES&lt;div&gt;Handles rendering commands&lt;/div&gt;" style="rounded=0;whiteSpace=wrap;html=1;" vertex="1" parent="1">
          <mxGeometry x="880" y="360" width="200" height="70" as="geometry" />
        </mxCell>
        <mxCell id="j34Nappy7KFsLkG89N9S-26" value="" style="endArrow=classic;html=1;rounded=0;" edge="1" parent="1">
          <mxGeometry width="50" height="50" relative="1" as="geometry">
            <mxPoint x="800" y="320" as="sourcePoint" />
            <mxPoint x="960" y="359" as="targetPoint" />
            <Array as="points">
              <mxPoint x="960" y="320" />
              <mxPoint x="960" y="340" />
            </Array>
          </mxGeometry>
        </mxCell>
        <mxCell id="j34Nappy7KFsLkG89N9S-35" value="" style="edgeStyle=orthogonalEdgeStyle;rounded=0;orthogonalLoop=1;jettySize=auto;html=1;" edge="1" parent="1" source="j34Nappy7KFsLkG89N9S-27" target="j34Nappy7KFsLkG89N9S-28">
          <mxGeometry relative="1" as="geometry" />
        </mxCell>
        <mxCell id="j34Nappy7KFsLkG89N9S-27" value="VSync Trigger&lt;div&gt;Triggered every 16ms&lt;/div&gt;" style="rounded=0;whiteSpace=wrap;html=1;" vertex="1" parent="1">
          <mxGeometry x="260" y="560" width="140" height="80" as="geometry" />
        </mxCell>
        <mxCell id="j34Nappy7KFsLkG89N9S-36" style="edgeStyle=orthogonalEdgeStyle;rounded=0;orthogonalLoop=1;jettySize=auto;html=1;entryX=0;entryY=0.5;entryDx=0;entryDy=0;" edge="1" parent="1" source="j34Nappy7KFsLkG89N9S-28" target="j34Nappy7KFsLkG89N9S-30">
          <mxGeometry relative="1" as="geometry" />
        </mxCell>
        <mxCell id="j34Nappy7KFsLkG89N9S-39" style="edgeStyle=orthogonalEdgeStyle;rounded=0;orthogonalLoop=1;jettySize=auto;html=1;entryX=0.5;entryY=0;entryDx=0;entryDy=0;" edge="1" parent="1" source="j34Nappy7KFsLkG89N9S-28" target="j34Nappy7KFsLkG89N9S-29">
          <mxGeometry relative="1" as="geometry" />
        </mxCell>
        <mxCell id="j34Nappy7KFsLkG89N9S-28" value="1-4 completed within&lt;div&gt;16ms&lt;/div&gt;" style="rhombus;whiteSpace=wrap;html=1;" vertex="1" parent="1">
          <mxGeometry x="440" y="560" width="160" height="80" as="geometry" />
        </mxCell>
        <mxCell id="j34Nappy7KFsLkG89N9S-29" value="Jank occur: next VSync must wait until draw complete" style="rounded=0;whiteSpace=wrap;html=1;" vertex="1" parent="1">
          <mxGeometry x="445" y="720" width="150" height="80" as="geometry" />
        </mxCell>
        <mxCell id="j34Nappy7KFsLkG89N9S-37" value="" style="edgeStyle=orthogonalEdgeStyle;rounded=0;orthogonalLoop=1;jettySize=auto;html=1;exitX=0.5;exitY=1;exitDx=0;exitDy=0;" edge="1" parent="1" source="j34Nappy7KFsLkG89N9S-30" target="j34Nappy7KFsLkG89N9S-31">
          <mxGeometry relative="1" as="geometry">
            <Array as="points">
              <mxPoint x="710" y="660" />
              <mxPoint x="710" y="660" />
            </Array>
          </mxGeometry>
        </mxCell>
        <mxCell id="j34Nappy7KFsLkG89N9S-30" value="Copy bitmap" style="rhombus;whiteSpace=wrap;html=1;" vertex="1" parent="1">
          <mxGeometry x="640" y="560" width="140" height="80" as="geometry" />
        </mxCell>
        <mxCell id="j34Nappy7KFsLkG89N9S-38" value="" style="edgeStyle=orthogonalEdgeStyle;rounded=0;orthogonalLoop=1;jettySize=auto;html=1;" edge="1" parent="1" source="j34Nappy7KFsLkG89N9S-31" target="j34Nappy7KFsLkG89N9S-32">
          <mxGeometry relative="1" as="geometry" />
        </mxCell>
        <mxCell id="j34Nappy7KFsLkG89N9S-31" value="Frame buffer" style="rounded=0;whiteSpace=wrap;html=1;" vertex="1" parent="1">
          <mxGeometry x="640" y="680" width="130" height="40" as="geometry" />
        </mxCell>
        <mxCell id="j34Nappy7KFsLkG89N9S-32" value="Display image on screen" style="rounded=0;whiteSpace=wrap;html=1;" vertex="1" parent="1">
          <mxGeometry x="640" y="760" width="130" height="70" as="geometry" />
        </mxCell>
        <mxCell id="j34Nappy7KFsLkG89N9S-40" value="&lt;font style=&quot;font-size: 14px;&quot;&gt;5.&amp;nbsp;&lt;/font&gt;&lt;div&gt;&lt;font style=&quot;font-size: 14px;&quot;&gt;Display &amp;amp; trigger&lt;/font&gt;&lt;/div&gt;" style="text;html=1;align=center;verticalAlign=middle;resizable=0;points=[];autosize=1;strokeColor=none;fillColor=none;" vertex="1" parent="1">
          <mxGeometry x="115" y="608" width="130" height="50" as="geometry" />
        </mxCell>
        <mxCell id="j34Nappy7KFsLkG89N9S-41" value="&amp;lt;16ms" style="text;html=1;align=center;verticalAlign=middle;resizable=0;points=[];autosize=1;strokeColor=none;fillColor=none;" vertex="1" parent="1">
          <mxGeometry x="590" y="570" width="60" height="30" as="geometry" />
        </mxCell>
        <mxCell id="j34Nappy7KFsLkG89N9S-43" value="&amp;gt;16ms&lt;span style=&quot;background-color: transparent; color: light-dark(rgb(0, 0, 0), rgb(255, 255, 255));&quot;&gt;&amp;nbsp;&lt;/span&gt;" style="text;html=1;align=center;verticalAlign=middle;resizable=0;points=[];autosize=1;strokeColor=none;fillColor=none;" vertex="1" parent="1">
          <mxGeometry x="460" y="675" width="60" height="30" as="geometry" />
        </mxCell>
        <mxCell id="j34Nappy7KFsLkG89N9S-45" value="&lt;font style=&quot;font-size: 14px;&quot;&gt;4.&lt;/font&gt;&lt;div&gt;&lt;font style=&quot;font-size: 14px;&quot;&gt;GPU Rasterization&lt;/font&gt;&lt;/div&gt;" style="text;html=1;align=center;verticalAlign=middle;resizable=0;points=[];autosize=1;strokeColor=none;fillColor=none;" vertex="1" parent="1">
          <mxGeometry x="110" y="435" width="140" height="50" as="geometry" />
        </mxCell>
        <mxCell id="j34Nappy7KFsLkG89N9S-56" style="edgeStyle=orthogonalEdgeStyle;rounded=0;orthogonalLoop=1;jettySize=auto;html=1;exitX=1;exitY=0.5;exitDx=0;exitDy=0;entryX=0;entryY=0.5;entryDx=0;entryDy=0;" edge="1" parent="1" source="j34Nappy7KFsLkG89N9S-46" target="j34Nappy7KFsLkG89N9S-47">
          <mxGeometry relative="1" as="geometry" />
        </mxCell>
        <mxCell id="j34Nappy7KFsLkG89N9S-46" value="GPU Rasterization" style="rounded=0;whiteSpace=wrap;html=1;" vertex="1" parent="1">
          <mxGeometry x="250" y="420" width="110" height="60" as="geometry" />
        </mxCell>
        <mxCell id="j34Nappy7KFsLkG89N9S-59" style="edgeStyle=orthogonalEdgeStyle;rounded=0;orthogonalLoop=1;jettySize=auto;html=1;exitX=1;exitY=0.5;exitDx=0;exitDy=0;entryX=0.5;entryY=0;entryDx=0;entryDy=0;" edge="1" parent="1" source="j34Nappy7KFsLkG89N9S-47" target="j34Nappy7KFsLkG89N9S-48">
          <mxGeometry relative="1" as="geometry">
            <mxPoint x="700" y="459.5882352941177" as="targetPoint" />
          </mxGeometry>
        </mxCell>
        <mxCell id="j34Nappy7KFsLkG89N9S-47" value="Position &amp;amp; Storage" style="rounded=0;whiteSpace=wrap;html=1;" vertex="1" parent="1">
          <mxGeometry x="450" y="420" width="110" height="60" as="geometry" />
        </mxCell>
        <mxCell id="j34Nappy7KFsLkG89N9S-52" style="edgeStyle=orthogonalEdgeStyle;rounded=0;orthogonalLoop=1;jettySize=auto;html=1;exitX=0.5;exitY=1;exitDx=0;exitDy=0;" edge="1" parent="1" source="j34Nappy7KFsLkG89N9S-48" target="j34Nappy7KFsLkG89N9S-48">
          <mxGeometry relative="1" as="geometry">
            <mxPoint x="705.1764705882354" y="520" as="targetPoint" />
          </mxGeometry>
        </mxCell>
        <mxCell id="j34Nappy7KFsLkG89N9S-48" value="Buffers" style="swimlane;whiteSpace=wrap;html=1;startSize=30;" vertex="1" parent="1">
          <mxGeometry x="610" y="470" width="170" height="70" as="geometry" />
        </mxCell>
        <mxCell id="j34Nappy7KFsLkG89N9S-54" value="Back Buffer 1" style="text;html=1;align=center;verticalAlign=middle;resizable=0;points=[];autosize=1;strokeColor=none;fillColor=none;" vertex="1" parent="j34Nappy7KFsLkG89N9S-48">
          <mxGeometry x="-10" y="40" width="100" height="30" as="geometry" />
        </mxCell>
        <mxCell id="j34Nappy7KFsLkG89N9S-55" value="Back Buffer 2" style="text;html=1;align=center;verticalAlign=middle;resizable=0;points=[];autosize=1;strokeColor=none;fillColor=none;" vertex="1" parent="j34Nappy7KFsLkG89N9S-48">
          <mxGeometry x="70" y="40" width="100" height="30" as="geometry" />
        </mxCell>
        <mxCell id="j34Nappy7KFsLkG89N9S-49" value="" style="endArrow=none;html=1;rounded=0;" edge="1" parent="1">
          <mxGeometry width="50" height="50" relative="1" as="geometry">
            <mxPoint x="780" y="520" as="sourcePoint" />
            <mxPoint x="800" y="520" as="targetPoint" />
          </mxGeometry>
        </mxCell>
        <mxCell id="j34Nappy7KFsLkG89N9S-57" value="Converts vector&lt;div&gt;&amp;nbsp;graphics to bitmap pixels&lt;/div&gt;" style="text;html=1;align=center;verticalAlign=middle;resizable=0;points=[];autosize=1;strokeColor=none;fillColor=none;" vertex="1" parent="1">
          <mxGeometry x="330" y="380" width="160" height="40" as="geometry" />
        </mxCell>
        <mxCell id="j34Nappy7KFsLkG89N9S-58" value="Calculates final&amp;nbsp;&lt;div&gt;screen color values per pixel&lt;/div&gt;" style="text;html=1;align=center;verticalAlign=middle;resizable=0;points=[];autosize=1;strokeColor=none;fillColor=none;" vertex="1" parent="1">
          <mxGeometry x="320" y="480" width="180" height="40" as="geometry" />
        </mxCell>
        <mxCell id="j34Nappy7KFsLkG89N9S-60" value="" style="endArrow=classic;html=1;rounded=0;" edge="1" parent="1" target="j34Nappy7KFsLkG89N9S-30">
          <mxGeometry width="50" height="50" relative="1" as="geometry">
            <mxPoint x="715" y="540" as="sourcePoint" />
            <mxPoint x="755" y="490" as="targetPoint" />
          </mxGeometry>
        </mxCell>
        <mxCell id="j34Nappy7KFsLkG89N9S-61" value="&lt;div&gt;&lt;font style=&quot;font-size: 14px;&quot;&gt;3.&lt;/font&gt;&lt;/div&gt;&lt;font style=&quot;font-size: 14px;&quot;&gt;CPU Processing&lt;/font&gt;" style="text;html=1;align=center;verticalAlign=middle;resizable=0;points=[];autosize=1;strokeColor=none;fillColor=none;" vertex="1" parent="1">
          <mxGeometry x="115" y="288" width="130" height="50" as="geometry" />
        </mxCell>
        <mxCell id="j34Nappy7KFsLkG89N9S-64" style="edgeStyle=orthogonalEdgeStyle;rounded=0;orthogonalLoop=1;jettySize=auto;html=1;exitX=1;exitY=0.5;exitDx=0;exitDy=0;entryX=0;entryY=0.5;entryDx=0;entryDy=0;" edge="1" parent="1" source="j34Nappy7KFsLkG89N9S-62" target="j34Nappy7KFsLkG89N9S-63">
          <mxGeometry relative="1" as="geometry" />
        </mxCell>
        <mxCell id="j34Nappy7KFsLkG89N9S-62" value="CPU Processing" style="rounded=0;whiteSpace=wrap;html=1;" vertex="1" parent="1">
          <mxGeometry x="250" y="290" width="120" height="50" as="geometry" />
        </mxCell>
        <mxCell id="j34Nappy7KFsLkG89N9S-63" value="Multidimensional Vector Graphics" style="rounded=0;whiteSpace=wrap;html=1;" vertex="1" parent="1">
          <mxGeometry x="570" y="290" width="160" height="50" as="geometry" />
        </mxCell>
        <mxCell id="j34Nappy7KFsLkG89N9S-65" value="Computes the dimensions &amp;amp;&lt;div&gt;&amp;nbsp;transformation of the &lt;code data-end=&quot;614&quot; data-start=&quot;603&quot;&gt;ImageView&lt;/code&gt; object&lt;/div&gt;" style="text;html=1;align=center;verticalAlign=middle;resizable=0;points=[];autosize=1;strokeColor=none;fillColor=none;" vertex="1" parent="1">
          <mxGeometry x="350" y="320" width="230" height="40" as="geometry" />
        </mxCell>
        <mxCell id="j34Nappy7KFsLkG89N9S-66" value="Pass vector/image data&amp;nbsp;&lt;div&gt;to &lt;strong data-end=&quot;784&quot; data-start=&quot;755&quot;&gt;OpenGL ES&lt;/strong&gt;&lt;/div&gt;" style="text;html=1;align=center;verticalAlign=middle;resizable=0;points=[];autosize=1;strokeColor=none;fillColor=none;" vertex="1" parent="1">
          <mxGeometry x="810" y="275" width="150" height="40" as="geometry" />
        </mxCell>
        <mxCell id="j34Nappy7KFsLkG89N9S-67" value="Driver Operations" style="text;html=1;align=center;verticalAlign=middle;resizable=0;points=[];autosize=1;strokeColor=none;fillColor=none;" vertex="1" parent="1">
          <mxGeometry x="830" y="485" width="120" height="30" as="geometry" />
        </mxCell>
        <mxCell id="j34Nappy7KFsLkG89N9S-68" value="&lt;div&gt;&lt;font style=&quot;font-size: 14px;&quot;&gt;2.&lt;/font&gt;&lt;/div&gt;&lt;font style=&quot;font-size: 14px;&quot;&gt;Component&lt;/font&gt;&lt;div&gt;&lt;font size=&quot;3&quot;&gt;&amp;nbsp;loaded&amp;nbsp;&lt;/font&gt;&lt;/div&gt;&lt;div&gt;&lt;font size=&quot;3&quot;&gt;into memory&lt;/font&gt;&lt;/div&gt;" style="text;html=1;align=center;verticalAlign=middle;resizable=0;points=[];autosize=1;strokeColor=none;fillColor=none;" vertex="1" parent="1">
          <mxGeometry x="125" y="170" width="110" height="90" as="geometry" />
        </mxCell>
        <mxCell id="j34Nappy7KFsLkG89N9S-71" style="edgeStyle=orthogonalEdgeStyle;rounded=0;orthogonalLoop=1;jettySize=auto;html=1;exitX=1;exitY=0.5;exitDx=0;exitDy=0;entryX=0;entryY=0.5;entryDx=0;entryDy=0;" edge="1" parent="1" source="j34Nappy7KFsLkG89N9S-69" target="j34Nappy7KFsLkG89N9S-70">
          <mxGeometry relative="1" as="geometry" />
        </mxCell>
        <mxCell id="j34Nappy7KFsLkG89N9S-69" value="LayoutInflater" style="rounded=0;whiteSpace=wrap;html=1;" vertex="1" parent="1">
          <mxGeometry x="270" y="180" width="120" height="60" as="geometry" />
        </mxCell>
        <mxCell id="j34Nappy7KFsLkG89N9S-70" value="UI Object Information&lt;div&gt;(Size, position, display image reference, etc.)&lt;/div&gt;" style="rounded=0;whiteSpace=wrap;html=1;" vertex="1" parent="1">
          <mxGeometry x="570" y="180" width="160" height="60" as="geometry" />
        </mxCell>
        <mxCell id="j34Nappy7KFsLkG89N9S-72" value="Parses and loads &lt;code data-end=&quot;378&quot; data-start=&quot;367&quot;&gt;&lt;b&gt;ImageView&lt;/b&gt;&lt;/code&gt;&amp;nbsp;&lt;div&gt;into memory as a UI object&lt;/div&gt;" style="text;html=1;align=center;verticalAlign=middle;resizable=0;points=[];autosize=1;strokeColor=none;fillColor=none;" vertex="1" parent="1">
          <mxGeometry x="390" y="170" width="180" height="40" as="geometry" />
        </mxCell>
        <mxCell id="j34Nappy7KFsLkG89N9S-74" value="&lt;div&gt;&lt;font style=&quot;font-size: 14px;&quot;&gt;1.&lt;/font&gt;&lt;/div&gt;&lt;font style=&quot;font-size: 14px;&quot;&gt;Component&amp;nbsp;&lt;/font&gt;&lt;div&gt;&lt;font size=&quot;3&quot;&gt;defined in layout&lt;/font&gt;&lt;/div&gt;" style="text;html=1;align=center;verticalAlign=middle;resizable=0;points=[];autosize=1;strokeColor=none;fillColor=none;" vertex="1" parent="1">
          <mxGeometry x="110" y="60" width="140" height="70" as="geometry" />
        </mxCell>
        <mxCell id="j34Nappy7KFsLkG89N9S-75" value="XML Layout Definition&lt;div&gt;Define &lt;code data-end=&quot;245&quot; data-start=&quot;234&quot;&gt;&lt;b&gt;ImageView&lt;/b&gt;&lt;/code&gt; layout in the XML layout file&lt;/div&gt;" style="rounded=0;whiteSpace=wrap;html=1;" vertex="1" parent="1">
          <mxGeometry x="380" y="60" width="160" height="60" as="geometry" />
        </mxCell>
      </root>
    </mxGraphModel>
  </diagram>
</mxfile>
